# xmcd
#
# Track frame offsets: 
#        150
#        14648
#        35198
#        58335
#        75980
#        91793
#        117334
#        139448
#        161023
#        186658
#        203193
#        224201
#        244716
#        271561
#        289623
#        310744
#        331194
#
# Disc length: 4764 seconds
#
# Revision: 0
# Processed by: cddbd v1.5.2PL0 Copyright (c) Steve Scherf et al.
# Submitted via: ExactAudioCopy v1.3
#
DISCID=03129a11
DTITLE=Various Artist - Akella Presents - vol. 171 - Electric Blues  
DTITLE=CD1
DYEAR=2019
DGENRE=Blues
TTITLE0=Uni Debess - Baby Please Don't Go
TTITLE1=Scott Ramminger - 88 Reasons
TTITLE2=Black Label Blues Band - 3rd Degree
TTITLE3=Jerry Forney - I'll Play The Blues For You
TTITLE4=Blue Attitude - Ghost Of Love
TTITLE5=Andy Watts - Blues on Fire
TTITLE6=Mike Sponza - 1962 - A Young Londoner's Point
TTITLE7=Adi Barar Band - Cold Black Night
TTITLE8=Climax Blues Band - Straight Down The Middle
TTITLE9=Big Al And The Heavyweights - Crazy About You Baby
TTITLE10=Matt Andersen - What Would Your Mama Say
TTITLE11=Billy Stapleton - Got To Be a Love
TTITLE12=Built For Comfort Blues Band - You Burned Me
TTITLE13=Dave Keller Blues Band - When You Love Me
TTITLE14=Mighty Mike Schermer - I Can't Let It Go
TTITLE15=Frankie Spellman - Tricked Into Love
TTITLE16=Bad Temper Joe - Bury Me Anyplace But Mississippi
EXTD=
EXTT0=
EXTT1=
EXTT2=
EXTT3=
EXTT4=
EXTT5=
EXTT6=
EXTT7=
EXTT8=
EXTT9=
EXTT10=
EXTT11=
EXTT12=
EXTT13=
EXTT14=
EXTT15=
EXTT16=
PLAYORDER=
